HIERARCHY
ROOT Root
{
	OFFSET 0.00000 0.00000 0.00000
	CHANNELS 6 Xposition Yposition Zposition Zrotation Xrotation Yrotation
	JOINT Hip
	{
		OFFSET 0 0 0	
		CHANNELS 3 Zrotation Xrotation Yrotation
		JOINT Tummy
		{
			OFFSET 0 0.04 0	
			CHANNELS 3 Zrotation Xrotation Yrotation
			JOINT ChestBottom
			{
				OFFSET 0 0.194 0	
				CHANNELS 3 Zrotation Xrotation Yrotation
				JOINT ChestTop
				{
					OFFSET 0 0.166 0	
					CHANNELS 3 Zrotation Xrotation Yrotation
					JOINT LeftCollar
					{
						OFFSET 0 0.1 0	
						CHANNELS 3 Zrotation Xrotation Yrotation
						JOINT LeftUpperArm
						{
							OFFSET 0.156 -0.02 0.03	
							CHANNELS 3 Zrotation Xrotation Yrotation
							JOINT LeftForeArm
							{
								OFFSET 0.035 -0.27 -0.01	
								CHANNELS 3 Zrotation Xrotation Yrotation
								JOINT LeftHand
								{
									OFFSET 0.01 -0.27 0.01	
									CHANNELS 3 Zrotation Xrotation Yrotation
									End Site
									{
										OFFSET 0 -0.15 0
									}
								}
							}
						}
					}
					JOINT RightCollar
					{
						OFFSET 0 0.1 0	
						CHANNELS 3 Zrotation Xrotation Yrotation
						JOINT RightUpperArm
						{
							OFFSET -0.156 -0.02 0.03	
							CHANNELS 3 Zrotation Xrotation Yrotation
							JOINT RightForeArm
							{
								OFFSET -0.035 -0.27 -0.01	
								CHANNELS 3 Zrotation Xrotation Yrotation
								JOINT RightHand
								{
									OFFSET -0.01 -0.27 0.01	
									CHANNELS 3 Zrotation Xrotation Yrotation
									End Site
									{
										OFFSET 0 -0.15 0
									}
								}
							}
						}
					}
					JOINT Neck
					{
						OFFSET 0 0.1 0	
						CHANNELS 3 Zrotation Xrotation Yrotation
						JOINT Head
						{
							OFFSET 0 0.127 0.03	
							CHANNELS 3 Zrotation Xrotation Yrotation
							End Site
							{
								OFFSET 0 0.127 0.03
							}
						}
					}
				}
			}
		}
	}
	JOINT LeftHip
	{
		OFFSET 0 0 0	
		CHANNELS 3 Zrotation Xrotation Yrotation
		JOINT LeftThigh
		{
			OFFSET 0.088 -0.06 0	
			CHANNELS 3 Zrotation Xrotation Yrotation
			JOINT LeftLowerLeg
			{
				OFFSET 0 -0.39 0.02	
				CHANNELS 3 Zrotation Xrotation Yrotation
				JOINT LeftFootTop
				{
					OFFSET 0 -0.43 -0.02	
					CHANNELS 3 Zrotation Xrotation Yrotation
					JOINT LeftFootFront
					{
						OFFSET 0 -0.07 0.085	
						CHANNELS 3 Zrotation Xrotation Yrotation
						End Site
						{
							OFFSET 0 -0.005 0.09
						}
					}
				}
				JOINT LeftHeel
				{
					OFFSET 0 -0.43 -0.02	
					CHANNELS 3 Zrotation Xrotation Yrotation
					End Site
					{
						OFFSET 0 -0.075 -0.05
					}
				}
			}
		}
	}
	JOINT RightHip
	{
		OFFSET 0 0 0	
		CHANNELS 3 Zrotation Xrotation Yrotation
		JOINT RightThigh
		{
			OFFSET -0.088 -0.06 0	
			CHANNELS 3 Zrotation Xrotation Yrotation
			JOINT RightLowerLeg
			{
				OFFSET 0 -0.39 0.02	
				CHANNELS 3 Zrotation Xrotation Yrotation
				JOINT RightFootTop
				{
					OFFSET 0 -0.43 -0.02	
					CHANNELS 3 Zrotation Xrotation Yrotation
					JOINT RightFootFront
					{
						OFFSET 0 -0.07 0.085	
						CHANNELS 3 Zrotation Xrotation Yrotation
						End Site
						{
							OFFSET 0 -0.005 0.09
						}
					}
				}
				JOINT RightHeel
				{
					OFFSET 0 -0.43 -0.02	
					CHANNELS 3 Zrotation Xrotation Yrotation
					End Site
					{
						OFFSET 0 -0.075 -0.05
					}
				}
			}
		}
	}
}
MOTION
Frames: 14
Frame Time: 0.025
0 0.955 0 -0 0 -0 -0.2058 -3.4014 1.6416 0.35669 3.13 -2.0577 0.35669 3.13 -2.0577 0.29201 2.6301 -1.7269 -0 0 -0 -0.61154 -4.4958 0.81608 -0.91824 -0.68438 5.5634 0.30886 -0.94752 0.070645 -0 0 -0 -3.2693 -6.548 -11.025 2.2169 -2.3119 3.8599 -0.0603 1.8839 -3.4753 -1.4334 -1.2826 0.3049 -1.4334 -1.2826 0.3049 -0 0 -0 -0 0 -0 -0 0 -0 -0 0 -0 -0 0 -0 -0 0 -0 -0 0 -0 -0 0 -0 -0 0 -0 -0 0 -0 -0 0 -0 -0 0 -0 
0 0.955 0 -0 0 -0 -0.20559 -3.4076 1.6417 0.35995 3.1371 -2.0688 0.35995 3.1371 -2.0688 0.29469 2.6361 -1.7361 -0 0 -0 -0.61916 -4.4902 0.80292 -0.92087 -0.67992 5.5458 0.31102 -0.95707 0.11004 -0 0 -0 -3.2699 -6.5556 -11.008 2.2265 -2.3171 3.8455 -0.052724 1.8848 -3.4658 -1.4401 -1.2743 0.308 -1.4401 -1.2743 0.308 -0 0 -0 -0 0 -0 -0 0 -0 -0 0 -0 -0 0 -0 -0 0 -0 -0 0 -0 -0 0 -0 -0 0 -0 -0 0 -0 -0 0 -0 -0 0 -0 
0 0.955 0 -0 0 -0 -0.20655 -3.4141 1.6409 0.36561 3.1469 -2.0836 0.36561 3.1469 -2.0836 0.29936 2.6443 -1.7486 -0 0 -0 -0.63129 -4.4829 0.78287 -0.93077 -0.67677 5.5155 0.31263 -0.97026 0.16462 -0 0 -0 -3.2723 -6.5677 -10.985 2.2392 -2.3247 3.8208 -0.041933 1.8882 -3.4482 -1.4484 -1.2651 0.31265 -1.4484 -1.2651 0.31265 -0 0 -0 -0 0 -0 -0 0 -0 -0 0 -0 -0 0 -0 -0 0 -0 -0 0 -0 -0 0 -0 -0 0 -0 -0 0 -0 -0 0 -0 -0 0 -0 
0 0.955 0 -0 0 -0 -0.2094 -3.4175 1.6371 0.37263 3.1576 -2.0966 0.37263 3.1576 -2.0966 0.30519 2.6533 -1.7594 -0 0 -0 -0.64477 -4.4789 0.75489 -0.94862 -0.68068 5.4798 0.3098 -0.98265 0.22385 -0 0 -0 -3.2765 -6.5845 -10.963 2.2475 -2.3294 3.7877 -0.027968 1.8907 -3.4252 -1.4537 -1.262 0.31705 -1.4537 -1.262 0.31705 -0 0 -0 -0 0 -0 -0 0 -0 -0 0 -0 -0 0 -0 -0 0 -0 -0 0 -0 -0 0 -0 -0 0 -0 -0 0 -0 -0 0 -0 -0 0 -0 
0 0.955 0 -0 0 -0 -0.21323 -3.4175 1.6287 0.37738 3.1685 -2.1036 0.37738 3.1685 -2.1036 0.30912 2.6625 -1.7653 -0 0 -0 -0.65124 -4.4782 0.7086 -0.96954 -0.69411 5.4538 0.30248 -0.99567 0.28099 -0 0 -0 -3.2766 -6.6027 -10.949 2.2509 -2.3279 3.749 -0.01094 1.8853 -3.4021 -1.4512 -1.2647 0.31717 -1.4512 -1.2647 0.31717 -0 0 -0 -0 0 -0 -0 0 -0 -0 0 -0 -0 0 -0 -0 0 -0 -0 0 -0 -0 0 -0 -0 0 -0 -0 0 -0 -0 0 -0 -0 0 -0 
0 0.955 0 -0 0 -0 -0.21757 -3.4162 1.6159 0.37867 3.18 -2.1042 0.37867 3.18 -2.1042 0.31017 2.6722 -1.7658 -0 0 -0 -0.64712 -4.4815 0.6409 -0.99203 -0.71358 5.4518 0.29645 -1.0099 0.32834 -0 0 -0 -3.2736 -6.6214 -10.954 2.2564 -2.3196 3.7108 0.00559 1.8673 -3.3809 -1.4444 -1.2703 0.31166 -1.4444 -1.2703 0.31166 -0 0 -0 -0 0 -0 -0 0 -0 -0 0 -0 -0 0 -0 -0 0 -0 -0 0 -0 -0 0 -0 -0 0 -0 -0 0 -0 -0 0 -0 -0 0 -0 
0 0.955 0 -0 0 -0 -0.22373 -3.4179 1.6008 0.38015 3.1961 -2.104 0.38015 3.1961 -2.104 0.31138 2.6857 -1.7656 -0 0 -0 -0.63596 -4.4979 0.5578 -1.0181 -0.73303 5.4844 0.29725 -1.0239 0.36764 -0 0 -0 -3.2733 -6.6533 -10.976 2.2588 -2.2979 3.6784 0.024417 1.8388 -3.3567 -1.4406 -1.2812 0.30599 -1.4406 -1.2812 0.30599 -0 0 -0 -0 0 -0 -0 0 -0 -0 0 -0 -0 0 -0 -0 0 -0 -0 0 -0 -0 0 -0 -0 0 -0 -0 0 -0 -0 0 -0 -0 0 -0 
0 0.955 0 -0 0 -0 -0.23168 -3.4251 1.5855 0.38328 3.2164 -2.1053 0.38328 3.2164 -2.1053 0.31395 2.7028 -1.7667 -0 0 -0 -0.62027 -4.526 0.46757 -1.0463 -0.74406 5.5463 0.30735 -1.0394 0.40014 -0 0 -0 -3.2717 -6.6955 -11.01 2.2405 -2.2646 3.6611 0.054369 1.8127 -3.3341 -1.4403 -1.297 0.30166 -1.4403 -1.297 0.30166 -0 0 -0 -0 0 -0 -0 0 -0 -0 0 -0 -0 0 -0 -0 0 -0 -0 0 -0 -0 0 -0 -0 0 -0 -0 0 -0 -0 0 -0 -0 0 -0 
0 0.955 0 -0 0 -0 -0.23823 -3.4348 1.571 0.38601 3.2345 -2.1061 0.38601 3.2345 -2.1061 0.31619 2.7179 -1.7673 -0 0 -0 -0.60505 -4.556 0.40895 -1.07 -0.73884 5.5913 0.32564 -1.0567 0.42093 -0 0 -0 -3.268 -6.7272 -11.044 2.2104 -2.2444 3.6688 0.090821 1.8139 -3.3306 -1.4421 -1.3097 0.29758 -1.4421 -1.3097 0.29758 -0 0 -0 -0 0 -0 -0 0 -0 -0 0 -0 -0 0 -0 -0 0 -0 -0 0 -0 -0 0 -0 -0 0 -0 -0 0 -0 -0 0 -0 -0 0 -0 
0 0.955 0 -0 0 -0 -0.24108 -3.4425 1.5566 0.38815 3.2462 -2.1063 0.38815 3.2462 -2.1063 0.31796 2.7278 -1.7675 -0 0 -0 -0.59093 -4.5768 0.37806 -1.0934 -0.72932 5.6232 0.3503 -1.0696 0.43293 -0 0 -0 -3.2701 -6.738 -11.069 2.1851 -2.2374 3.6686 0.12442 1.8308 -3.3244 -1.4479 -1.3133 0.29677 -1.4479 -1.3133 0.29677 -0 0 -0 -0 0 -0 -0 0 -0 -0 0 -0 -0 0 -0 -0 0 -0 -0 0 -0 -0 0 -0 -0 0 -0 -0 0 -0 -0 0 -0 -0 0 -0 
0 0.955 0 -0 0 -0 -0.24181 -3.4467 1.5426 0.38963 3.2546 -2.107 0.38963 3.2546 -2.107 0.31918 2.7349 -1.7681 -0 0 -0 -0.57119 -4.5928 0.36789 -1.1213 -0.73104 5.6505 0.3799 -1.0716 0.44273 -0 0 -0 -3.2767 -6.7379 -11.089 2.1739 -2.237 3.6514 0.14353 1.8469 -3.3048 -1.454 -1.3123 0.30173 -1.454 -1.3123 0.30173 -0 0 -0 -0 0 -0 -0 0 -0 -0 0 -0 -0 0 -0 -0 0 -0 -0 0 -0 -0 0 -0 -0 0 -0 -0 0 -0 -0 0 -0 -0 0 -0 
0 0.955 0 -0 0 -0 -0.24307 -3.4503 1.5305 0.38969 3.262 -2.1085 0.38969 3.262 -2.1085 0.31921 2.741 -1.7694 -0 0 -0 -0.54215 -4.6047 0.38256 -1.1467 -0.74908 5.6656 0.40599 -1.0633 0.44518 -0 0 -0 -3.2793 -6.7357 -11.11 2.1758 -2.2412 3.6346 0.14141 1.8659 -3.2798 -1.4537 -1.3098 0.31025 -1.4537 -1.3098 0.31025 -0 0 -0 -0 0 -0 -0 0 -0 -0 0 -0 -0 0 -0 -0 0 -0 -0 0 -0 -0 0 -0 -0 0 -0 -0 0 -0 -0 0 -0 -0 0 -0 
0 0.955 0 -0 0 -0 -0.24539 -3.4569 1.522 0.38873 3.267 -2.1116 0.38873 3.267 -2.1116 0.31837 2.7453 -1.7719 -0 0 -0 -0.51243 -4.6021 0.41997 -1.1632 -0.77337 5.6696 0.42246 -1.0526 0.43494 -0 0 -0 -3.278 -6.7306 -11.131 2.1826 -2.2454 3.6334 0.12634 1.8948 -3.2648 -1.449 -1.3013 0.3197 -1.449 -1.3013 0.3197 -0 0 -0 -0 0 -0 -0 0 -0 -0 0 -0 -0 0 -0 -0 0 -0 -0 0 -0 -0 0 -0 -0 0 -0 -0 0 -0 -0 0 -0 -0 0 -0 
0 0.955 0 -0 0 -0 -0.24657 -3.4664 1.5191 0.38529 3.2698 -2.118 0.38529 3.2698 -2.118 0.31546 2.7476 -1.7773 -0 0 -0 -0.48665 -4.5782 0.46403 -1.1676 -0.79448 5.6936 0.43057 -1.044 0.40448 -0 0 -0 -3.2706 -6.7228 -11.148 2.1841 -2.2455 3.6537 0.11294 1.9294 -3.2756 -1.44 -1.2847 0.32854 -1.44 -1.2847 0.32854 -0 0 -0 -0 0 -0 -0 0 -0 -0 0 -0 -0 0 -0 -0 0 -0 -0 0 -0 -0 0 -0 -0 0 -0 -0 0 -0 -0 0 -0 -0 0 -0 
